<!-- Generated by PNG to SVG Converter -->
<svg xmlns="http://www.w3.org/2000/svg" xmlns:xlink="http://www.w3.org/1999/xlink" width="500" height="500" viewBox="120 80 280 340" version="1.1">
	<path d="M 331.500 95.261 C 328.679 95.093, 325.425 96.004, 320.460 98.352 C 316.588 100.183, 310.063 103.885, 305.960 106.579 C 301.857 109.274, 294.719 115.083, 290.098 119.489 C 285.477 123.895, 279.252 130.789, 276.265 134.809 C 273.278 138.830, 269.747 142.614, 268.419 143.219 C 266.660 144.020, 264.578 144.017, 260.752 143.208 C 257.863 142.597, 253.250 142.017, 250.500 141.920 C 247.750 141.822, 240.662 141.800, 234.750 141.871 L 224 142 224 147.500 L 224 153 219 153 L 214 153 214 147.546 L 214 142.091 207.250 141.796 L 200.500 141.500 200.198 136.250 L 199.895 131 194.448 131 L 189 131 189 126 L 189 121 183.500 121 L 178 121 178 126.500 L 178 132 182.948 132 L 187.895 132 188.198 137.250 L 188.500 142.500 194.752 142.500 L 201.004 142.500 201.002 147.750 L 201 153 195 153 L 189 153 189 158.500 L 189 164 195.448 164 L 201.895 164 202.198 169.250 L 202.500 174.500 208 174.500 L 213.500 174.500 213.805 169.750 L 214.110 165 219.555 165 L 225 165 225 169.500 L 225 174 219.500 174 L 214 174 214 180 L 214 186 219.500 186 L 225 186 225 180.500 L 225 175 229.500 175 L 234 175 234 179.943 L 234 184.885 229.750 185.193 L 225.500 185.500 225.198 190.750 L 224.895 196 229.448 196 L 234 196 234 201.500 L 234 207 229 207 L 224 207 224 212 L 224 217 219 217 L 214 217 214 207 L 214 197 208 197 L 202 197 202 202 L 202 207 195.500 207 L 189 207 189 213 L 189 219 194.500 219 L 200 219 200 224 L 200 229 206.450 229 L 212.900 229 213.200 234.750 L 213.500 240.500 219.500 240.500 L 225.500 240.500 225.784 229.750 L 226.068 219 230.034 219 L 234 219 234 223.941 C 234 226.659, 234.450 229.160, 235 229.500 C 235.563 229.848, 236 234.660, 236 240.509 L 236 250.900 230.250 251.200 L 224.500 251.500 224.198 256.750 L 223.895 262 229.948 262 L 236 262 236 267.799 L 236 273.598 232.503 273.190 C 230.579 272.966, 227.992 273.035, 226.753 273.345 C 224.583 273.887, 224.512 274.260, 224.819 283.454 L 225.137 293 229.569 293 L 234 293 234 299 L 234 305 223.243 305 L 212.486 305 212.843 300.500 L 213.201 296 206.548 296 L 199.895 296 200.198 301.250 L 200.500 306.500 206.750 306.798 L 213 307.095 213 312.048 L 213 317 218.500 317 L 224 317 224 322.500 L 224 328 229 328 L 234 328 234.180 335.750 C 234.279 340.012, 234.264 344.922, 234.148 346.660 C 233.944 349.694, 234.139 349.864, 239.017 350.910 C 241.812 351.510, 245.764 351.995, 247.799 351.988 C 249.835 351.982, 253.851 351.350, 256.725 350.585 C 259.598 349.820, 263.517 348.226, 265.433 347.042 C 267.348 345.858, 270.129 343.452, 271.613 341.695 C 273.097 339.938, 275.361 336.250, 276.645 333.500 C 278.374 329.799, 278.965 326.811, 278.920 322 C 278.887 318.425, 278.549 314.717, 278.170 313.759 C 277.634 312.407, 276.981 313.107, 275.245 316.891 C 274.015 319.571, 271.908 322.486, 270.561 323.368 L 268.114 324.971 269.557 321.518 C 270.351 319.618, 270.998 315.012, 270.996 311.282 C 270.994 307.552, 270.352 300.450, 269.570 295.500 C 268.788 290.550, 268.054 284.475, 267.940 282 C 267.825 279.525, 267.792 275.737, 267.866 273.583 C 267.940 271.429, 268.255 269.922, 268.567 270.234 C 268.879 270.545, 269.763 273.809, 270.532 277.485 C 271.302 281.162, 273.047 286.606, 274.410 289.585 C 275.774 292.563, 277.030 295, 277.201 295 C 277.372 295, 277.542 291.481, 277.578 287.180 C 277.632 280.650, 278.141 278.298, 280.662 272.930 C 282.322 269.393, 284.950 264.999, 286.501 263.165 C 288.052 261.331, 293.705 256.510, 299.063 252.452 C 304.421 248.395, 310.404 243.123, 312.358 240.739 C 314.312 238.354, 316.799 234.400, 317.885 231.951 L 319.859 227.500 319.929 231.601 C 319.968 233.856, 319.479 237.231, 318.841 239.101 C 318.204 240.970, 316.329 244.490, 314.675 246.923 C 313.020 249.355, 308.666 254.530, 304.998 258.423 C 301.330 262.315, 297.130 267.292, 295.664 269.482 C 294.199 271.672, 293 274.065, 293 274.800 C 293 275.769, 293.756 275.604, 295.750 274.199 C 297.262 273.133, 300.300 271.357, 302.500 270.253 C 304.700 269.148, 307.954 267.930, 309.731 267.547 C 312.788 266.887, 312.586 267.212, 305.948 273.620 C 302.091 277.344, 297.454 282.665, 295.645 285.445 C 293.835 288.225, 291.344 292.906, 290.108 295.847 C 288.872 298.788, 288.011 301.344, 288.194 301.527 C 288.377 301.710, 290.975 300.317, 293.967 298.430 C 296.959 296.544, 299.713 295, 300.087 295 C 300.460 295, 300.103 296.913, 299.294 299.250 C 298.484 301.587, 296.522 309.426, 294.935 316.668 C 293.348 323.911, 291.289 331.786, 290.359 334.168 C 289.429 336.551, 287.151 340.822, 285.297 343.660 C 283.442 346.498, 280.367 350.008, 278.462 351.461 C 276.558 352.914, 273.439 354.754, 271.532 355.551 C 269.625 356.348, 266.988 357, 265.674 357 C 263.893 357, 262.376 358.367, 259.726 362.358 C 257.769 365.305, 254.614 370.817, 252.715 374.608 C 250.816 378.399, 248.105 384.875, 246.691 389 C 245.276 393.125, 243.690 398.413, 243.166 400.750 C 242.642 403.087, 242.357 405, 242.533 405 C 242.709 405, 244.322 402.412, 246.117 399.250 C 247.912 396.087, 253.238 389.675, 257.952 385 C 262.666 380.325, 270.681 373.663, 275.762 370.195 L 285 363.890 285 368.886 C 285 371.634, 285.433 374.149, 285.962 374.476 C 286.491 374.803, 287.815 373.367, 288.906 371.285 C 289.996 369.203, 292.826 365.163, 295.194 362.306 C 297.562 359.450, 302.729 353.359, 306.675 348.772 C 310.621 344.185, 315.684 337.032, 317.925 332.878 C 320.165 328.723, 322.899 321.804, 323.999 317.502 C 325.100 313.200, 326 307.952, 326 305.840 C 326 303.728, 326.373 302, 326.828 302 C 327.284 302, 328.184 304.284, 328.828 307.076 C 329.473 309.869, 330.296 315.997, 330.657 320.695 L 331.313 329.236 333.187 326.868 C 334.218 325.566, 337.032 320.450, 339.441 315.500 C 341.851 310.550, 344.623 303.350, 345.603 299.500 C 346.763 294.937, 347.394 288.670, 347.413 281.500 C 347.430 275.450, 347.111 269.150, 346.704 267.500 L 345.964 264.500 348.232 267.051 C 349.479 268.454, 351.762 271.154, 353.305 273.051 L 356.110 276.500 355.564 267.946 C 355.264 263.241, 354.129 255.914, 353.042 251.662 C 351.954 247.411, 349.279 240.123, 347.097 235.466 C 344.915 230.810, 343.336 227, 343.587 227 C 343.839 227, 346.131 228.913, 348.680 231.250 L 353.315 235.500 352.692 230 C 352.297 226.518, 350.709 221.932, 348.362 217.500 C 346.323 213.650, 343.072 207.432, 341.136 203.682 C 338.674 198.911, 337.498 195.158, 337.219 191.182 C 336.912 186.804, 337.521 183.320, 339.872 176 C 341.550 170.775, 343.671 163.350, 344.585 159.500 C 345.706 154.780, 346.234 148.266, 346.208 139.500 C 346.177 128.956, 345.697 124.676, 343.666 116.845 C 342.290 111.535, 339.889 104.560, 338.332 101.345 C 335.630 95.768, 335.316 95.489, 331.500 95.261 M 329.549 109 C 328.336 109, 325.128 110.450, 322.421 112.222 C 319.715 113.994, 313.644 119.281, 308.930 123.972 C 304.217 128.662, 298.267 135.627, 295.708 139.449 C 292.936 143.588, 290.578 148.526, 289.877 151.660 C 288.869 156.163, 288.949 157.577, 290.428 161.451 C 291.379 163.941, 294.065 167.941, 296.397 170.340 C 298.728 172.740, 302.763 175.949, 305.363 177.473 C 307.963 178.996, 310.267 180.067, 310.482 179.851 C 310.697 179.636, 309.102 176.674, 306.937 173.268 C 304.772 169.863, 303 166.609, 303 166.038 C 303 165.467, 304.268 165, 305.818 165 C 307.369 165, 311.081 164.274, 314.068 163.387 L 319.500 161.773 312.324 159.951 C 308.377 158.948, 303.652 157.314, 301.824 156.319 L 298.500 154.509 307.250 153.603 C 312.063 153.104, 316 152.345, 316 151.916 C 316 151.486, 315.137 150.861, 314.082 150.526 C 313.028 150.191, 311.003 149.003, 309.582 147.886 C 308.162 146.769, 307 145.067, 307 144.105 C 307 143.143, 308.913 139.610, 311.250 136.255 C 313.587 132.900, 318.117 127.195, 321.315 123.577 C 324.513 119.960, 327.499 117, 327.951 117 C 328.404 117, 329.334 119.972, 330.020 123.604 C 330.751 127.478, 331.048 133.781, 330.738 138.854 C 330.425 143.991, 329.196 150.645, 327.711 155.250 C 326.337 159.512, 325.570 163, 326.008 163 C 326.446 163, 327.740 161.537, 328.885 159.750 C 330.039 157.948, 330.974 157.186, 330.983 158.040 C 330.992 158.887, 330.312 162.221, 329.471 165.449 C 328.630 168.678, 326.650 174.394, 325.071 178.153 C 323.447 182.018, 322.759 184.665, 323.487 184.244 C 324.195 183.835, 326.373 181.578, 328.326 179.229 C 330.280 176.879, 333.205 172.604, 334.827 169.729 C 336.449 166.853, 338.108 163.375, 338.512 162 L 339.248 159.500 336.476 162 L 333.704 164.500 334.391 162 C 334.769 160.625, 335.728 156.575, 336.522 153 C 337.316 149.425, 337.973 142.184, 337.983 136.910 C 337.994 130.549, 337.328 124.693, 336.005 119.518 C 334.907 115.227, 333.502 111.105, 332.882 110.358 C 332.262 109.611, 330.762 109, 329.549 109 M 172.521 110 C 168.667 110, 166.771 110.432, 166.402 111.395 C 166.108 112.162, 166.009 114.524, 166.183 116.645 L 166.500 120.500 172 120.500 L 177.500 120.500 177.802 115.250 L 178.105 110 172.521 110 M 166.250 131.808 C 165.838 131.638, 163.363 131.636, 160.750 131.804 L 156 132.110 156 137.555 L 156 143 161.500 143 L 167 143 167 137.559 C 167 134.566, 166.662 131.979, 166.250 131.808 M 172.469 153 C 168.660 153, 166.771 153.434, 166.402 154.395 C 166.108 155.162, 166.009 157.524, 166.183 159.645 L 166.500 163.500 172.250 163.800 L 178 164.100 178 158.550 L 178 153 172.469 153 M 207.500 154 L 202 154 202 159 L 202 164 207.500 164 L 213 164 213 159 L 213 154 207.500 154 M 229.500 154 L 225 154 225 158.500 L 225 163 229.500 163 L 234 163 234 158.500 L 234 154 229.500 154 M 160.462 174.205 C 157.690 174.043, 155.215 174.117, 154.962 174.370 C 154.708 174.622, 154.654 177.342, 154.843 180.415 L 155.185 186 160.642 186 L 166.100 186 165.800 180.250 L 165.500 174.500 160.462 174.205 M 183.250 175.198 L 178 174.895 178 180.448 L 178 186 183.552 186 L 189.105 186 188.802 180.750 L 188.500 175.500 183.250 175.198 M 195.167 185 C 192.508 185, 190.033 185.300, 189.667 185.667 C 189.300 186.033, 189 188.508, 189 191.167 L 189 196 194.500 196 L 200 196 200 190.500 L 200 185 195.167 185 M 284.971 185 C 284.491 185, 284.966 186.912, 286.027 189.250 C 287.088 191.588, 287.959 195.075, 287.963 197 C 287.966 198.925, 287.526 201.175, 286.985 202 C 286.109 203.333, 285.891 203.333, 285.015 202 C 284.474 201.175, 284.009 199.600, 283.984 198.500 C 283.958 197.400, 283.360 195.741, 282.655 194.814 C 281.543 193.351, 281.215 193.896, 280.172 198.948 C 279.457 202.410, 277.517 206.942, 275.383 210.134 C 273.411 213.085, 270.470 216.565, 268.849 217.867 C 267.227 219.169, 265.667 220, 265.381 219.714 C 265.095 219.428, 265.794 217.363, 266.936 215.126 C 268.592 211.880, 268.701 211.177, 267.479 211.646 C 266.636 211.970, 264.834 214.134, 263.473 216.455 C 261.633 219.595, 261 222.120, 261 226.318 C 261 229.421, 261.724 233.769, 262.609 235.980 C 263.493 238.191, 264.618 240, 265.109 240 C 265.599 240, 266 237.732, 266 234.960 C 266 231.973, 266.775 228.409, 267.903 226.210 C 268.949 224.170, 271.009 221.376, 272.480 220.003 C 273.952 218.629, 278.808 215.254, 283.273 212.503 C 288.339 209.380, 292.120 206.250, 293.331 204.175 C 294.986 201.339, 295.108 200.303, 294.157 197.130 C 293.544 195.084, 291.423 191.517, 289.443 189.205 C 287.464 186.892, 285.451 185, 284.971 185 M 171.750 197.200 L 166 196.900 166 202.500 L 166 208.100 171.750 207.800 L 177.500 207.500 177.500 202.500 L 177.500 197.500 171.750 197.200 M 128.283 207 L 122.900 207 123.200 212.750 L 123.500 218.500 128.655 218.799 L 133.809 219.098 134.155 213.463 C 134.345 210.365, 134.313 207.642, 134.083 207.415 C 133.854 207.187, 131.244 207, 128.283 207 M 150.969 207 C 147.603 207, 145.761 207.459, 145.406 208.386 C 145.113 209.148, 145.015 211.735, 145.187 214.136 L 145.500 218.500 150.750 218.802 L 156 219.105 156 213.052 L 156 207 150.969 207 M 296.446 215.065 C 295.926 215.100, 291.980 216.853, 287.677 218.959 C 283.375 221.065, 278.720 223.848, 277.332 225.144 C 275.945 226.440, 274.178 228.715, 273.405 230.200 C 272.632 231.686, 272 233.200, 272 233.567 C 272 233.933, 273.772 232.632, 275.938 230.675 C 278.104 228.718, 282.274 225.983, 285.206 224.596 C 288.137 223.209, 292.078 220.483, 293.964 218.537 C 295.850 216.592, 296.967 215.029, 296.446 215.065 M 303.843 229.461 C 303.610 228.280, 302.941 228.991, 301.758 231.679 C 300.800 233.856, 298.887 236.697, 297.508 237.993 L 295 240.349 295 237.233 C 295 235.520, 294.550 233.840, 294 233.500 C 293.450 233.160, 293 233.635, 293 234.555 C 293 235.475, 292.072 237.880, 290.937 239.899 C 289.802 241.918, 286.852 244.849, 284.381 246.412 C 281.910 247.975, 279.239 249.904, 278.444 250.698 C 277.650 251.493, 277 252.527, 277 252.997 C 277 253.466, 281.163 252.073, 286.250 249.902 C 292.951 247.041, 296.526 244.830, 299.223 241.878 C 301.271 239.637, 303.225 236.318, 303.566 234.502 C 303.906 232.686, 304.031 230.417, 303.843 229.461 M 140.050 229 L 134 229 134 235.050 L 134 241.100 139.750 240.800 L 145.500 240.500 145.800 234.750 L 146.100 229 140.050 229 M 172 229 L 166 229 166 234.500 L 166 240 160.500 240 L 155 240 155 246 L 155 252 161 252 L 167 252 167 246.500 L 167 241 172.500 241 L 178 241 178 235 L 178 229 172 229 M 285.215 231.015 C 284.822 231.024, 283.825 231.482, 283 232.034 C 281.696 232.905, 281.736 233.176, 283.305 234.099 C 284.778 234.965, 284.882 235.437, 283.870 236.657 C 282.999 237.706, 281.639 237.967, 279.314 237.531 C 276.776 237.055, 276 237.256, 276 238.387 C 276 239.200, 276.932 240.161, 278.072 240.523 C 279.212 240.885, 281.231 240.908, 282.560 240.574 C 283.888 240.241, 285.687 238.881, 286.558 237.551 C 287.789 235.673, 287.896 234.674, 287.036 233.067 C 286.427 231.930, 285.608 231.007, 285.215 231.015 M 183.500 251 L 178 251 178 256.500 L 178 262 183.500 262 L 189 262 189 256.500 L 189 251 183.500 251 M 150.500 262 L 145 262 145 267.500 L 145 273 150.500 273 L 156 273 156 267.500 L 156 262 150.500 262 M 173.167 273 C 170.508 273, 168.033 273.300, 167.667 273.667 C 167.300 274.033, 167 276.733, 167 279.667 L 167 285 172.500 285 L 178 285 178 279 L 178 273 173.167 273 M 195.250 273.198 L 190 272.895 190 278.948 L 190 285 195.550 285 L 201.100 285 200.800 279.250 L 200.500 273.500 195.250 273.198 M 257 287.500 C 256.450 287.160, 256 287.584, 256 288.441 C 256 289.298, 256.450 290, 257 290 C 257.550 290, 258 289.577, 258 289.059 C 258 288.541, 257.550 287.840, 257 287.500 M 248.750 296.398 C 246.178 295.042, 246 295.080, 246 296.974 C 246 298.088, 246.338 299.011, 246.750 299.024 C 247.162 299.037, 249.300 299.459, 251.500 299.962 C 255.194 300.806, 255.347 300.760, 253.500 299.362 C 252.400 298.529, 250.262 297.195, 248.750 296.398 M 183.552 296 L 178 296 178 301.552 L 178 307.105 183.250 306.802 L 188.500 306.500 188.802 301.250 L 189.105 296 183.552 296 M 257.441 311 C 257.198 311, 257 311.450, 257 312 C 257 312.550, 257.477 313, 258.059 313 C 258.641 313, 258.840 312.550, 258.500 312 C 258.160 311.450, 257.684 311, 257.441 311 M 195 318.129 L 190 318.357 190 323.679 L 190 329 195.617 329 C 200.953 329, 201.203 328.888, 200.630 326.750 C 200.299 325.512, 200.021 323.015, 200.014 321.201 L 200 317.901 195 318.129 M 218.500 338 L 213 338 213 344 L 213 350 218.500 350 L 224 350 224 344 L 224 338 218.500 338 M 251 343 C 248.250 343, 246 343.450, 246 344 C 246 344.550, 248.250 345, 251 345 C 253.750 345, 256 344.550, 256 344 C 256 343.450, 253.750 343, 251 343" stroke="none" fill="#E0C06A" fill-rule="evenodd"/>
</svg>